<svg fill="#ffffff" version="1.0" xmlns="http://www.w3.org/2000/svg"
 width="127.000000pt" height="123.000000pt" viewBox="0 0 127.000000 123.000000"
 preserveAspectRatio="xMidYMid meet">

<g transform="translate(0.000000,123.000000) scale(0.100000,-0.100000)"
fill="#ffffff" stroke="none">
<path d="M80 940 c-19 -19 -20 -33 -20 -350 0 -398 -10 -370 135 -370 57 0 95
4 95 10 0 6 5 10 11 10 5 0 7 -4 4 -10 -11 -17 117 -12 143 6 22 15 22 15 22
353 0 315 -1 339 -18 354 -16 14 -44 17 -185 17 -154 0 -169 -2 -187 -20z
m338 -127 l3 -33 -150 0 -151 0 0 30 0 29 98 4 c53 2 120 3 147 3 49 -1 50 -2
53 -33z m2 -103 l0 -30 -150 0 -150 0 0 30 0 30 150 0 150 0 0 -30z m-122
-292 c21 -21 14 -57 -13 -70 -22 -10 -29 -9 -47 10 -19 18 -20 25 -10 47 13
27 49 34 70 13z"/>
<path d="M586 754 c-14 -13 -16 -47 -16 -218 0 -144 3 -205 12 -214 8 -8 47
-12 110 -12 l98 0 0 -45 0 -45 100 0 100 0 0 45 0 45 98 0 c63 0 102 4 110 12
9 9 12 70 12 214 0 171 -2 205 -16 218 -13 14 -55 16 -304 16 -249 0 -291 -2
-304 -16z m415 -14 l179 0 -2 -202 -3 -203 -287 -3 -288 -2 0 205 0 205 105 0
c77 0 105 3 106 13 0 10 2 10 6 0 3 -10 50 -13 184 -13z"/>
</g>
</svg>
